<?xml version="1.0" standalone="no"?>
<!DOCTYPE svg PUBLIC "-//W3C//DTD SVG 20010904//EN"
 "http://www.w3.org/TR/2001/REC-SVG-20010904/DTD/svg10.dtd">
<svg version="1.0" xmlns="http://www.w3.org/2000/svg"
 width="1000.000000pt" height="1000.000000pt" viewBox="0 0 1000.000000 1000.000000"
 preserveAspectRatio="xMidYMid meet">

<g transform="translate(0.000000,1000.000000) scale(0.100000,-0.100000)"
fill="#000000" stroke="none">
<path d="M3556 6784 c-282 -51 -473 -243 -532 -538 -13 -61 -15 -112 -11 -216
7 -176 39 -292 113 -415 l35 -59 -29 -61 c-63 -130 -90 -318 -72 -501 21 -210
78 -411 166 -587 78 -154 70 -224 -43 -396 -76 -118 -90 -175 -59 -252 78
-195 479 -525 674 -555 l42 -7 0 124 -1 124 -67 32 c-92 45 -220 144 -326 252
l-88 91 21 32 c115 176 150 266 151 384 0 94 -18 164 -67 253 -115 213 -181
514 -155 717 34 265 167 389 433 401 322 16 593 -165 956 -637 137 -178 249
-271 427 -356 92 -43 234 -89 295 -96 32 -3 37 1 84 69 l51 73 -17 48 c-44
121 -28 235 57 407 59 121 154 262 166 249 4 -5 46 -86 94 -179 l87 -170 117
0 c106 0 122 -2 175 -27 32 -15 72 -38 89 -51 l31 -25 146 104 146 104 8 -58
c5 -31 5 -94 2 -140 -18 -239 -117 -434 -362 -710 -208 -234 -233 -266 -265
-331 -122 -244 69 -553 402 -652 66 -19 105 -22 318 -26 l242 -5 0 126 0 126
-208 0 c-220 0 -280 8 -372 52 -68 33 -146 118 -164 179 -23 75 -14 90 179
304 240 267 340 430 395 645 61 234 43 474 -61 807 l-10 32 -197 -131 c-108
-72 -201 -131 -207 -130 -5 0 -42 12 -82 26 -56 21 -91 26 -162 27 l-90 1
-102 174 c-56 96 -104 176 -108 179 -14 8 -177 -122 -233 -186 -145 -166 -257
-414 -258 -571 0 -56 -4 -57 -79 -23 -146 68 -228 143 -396 360 -122 157 -309
348 -430 438 -105 79 -278 167 -385 198 -50 14 -116 23 -200 26 -159 6 -281
-17 -405 -76 -46 -23 -86 -41 -89 -41 -7 0 -33 84 -51 163 -20 89 -20 254 0
331 51 193 217 316 426 316 l39 0 0 125 0 125 -52 -1 c-29 0 -88 -7 -132 -15z"/>
<path d="M4083 4697 c-51 -40 -92 -74 -92 -77 -1 -3 38 -48 85 -100 111 -122
128 -155 127 -245 -1 -82 -32 -177 -99 -302 -69 -127 -58 -195 51 -321 118
-136 468 -363 657 -426 124 -42 118 -47 118 97 l0 122 -63 23 c-116 41 -372
206 -495 318 l-57 51 52 109 c76 160 98 240 98 355 0 90 -2 99 -37 170 -26 52
-68 107 -138 184 -55 61 -104 111 -108 112 -4 1 -48 -30 -99 -70z"/>
</g>
</svg>
